<svg width="20" height="16" viewBox="0 0 20 16" fill="none" xmlns="http://www.w3.org/2000/svg">
<path d="M13.2071 1.29289L12.5 0.585786L11.0858 2L11.7929 2.70711L13.2071 1.29289ZM18.57 8.07L19.2771 8.77711C19.4646 8.58957 19.57 8.33522 19.57 8.07C19.57 7.80478 19.4646 7.55043 19.2771 7.36289L18.57 8.07ZM11.7929 13.4329L11.0858 14.14L12.5 15.5542L13.2071 14.8471L11.7929 13.4329ZM1.5 7C0.947715 7 0.5 7.44772 0.5 8C0.5 8.55228 0.947715 9 1.5 9V7ZM18.33 9C18.8823 9 19.33 8.55228 19.33 8C19.33 7.44772 18.8823 7 18.33 7V9ZM11.7929 2.70711L17.8629 8.77711L19.2771 7.36289L13.2071 1.29289L11.7929 2.70711ZM17.8629 7.36289L11.7929 13.4329L13.2071 14.8471L19.2771 8.77711L17.8629 7.36289ZM1.5 9H18.33V7H1.5V9Z" fill="#272727"/>
</svg>
